<svg xmlns="http://www.w3.org/2000/svg" width="1400" height="980" viewBox="0 0 1400 980" fill="none">
  <defs>
    <linearGradient id="bg" x1="0" y1="0" x2="1400" y2="980" gradientUnits="userSpaceOnUse">
      <stop stop-color="#FF2FB3"/>
      <stop offset="0.55" stop-color="#FF79D6"/>
      <stop offset="1" stop-color="#FFFFFF"/>
    </linearGradient>
    <linearGradient id="glass" x1="0" y1="0" x2="1" y2="1">
      <stop stop-color="#FFFFFF" stop-opacity="0.95"/>
      <stop offset="1" stop-color="#FFFFFF" stop-opacity="0.55"/>
    </linearGradient>
    <filter id="shadow" x="-40" y="-40" width="1480" height="1060" filterUnits="userSpaceOnUse" color-interpolation-filters="sRGB">
      <feDropShadow dx="0" dy="24" stdDeviation="26" flood-color="#1B0A16" flood-opacity="0.25"/>
    </filter>
    <filter id="soft" x="-40" y="-40" width="1480" height="1060" filterUnits="userSpaceOnUse" color-interpolation-filters="sRGB">
      <feGaussianBlur stdDeviation="18"/>
    </filter>
  </defs>

  <rect width="1400" height="980" rx="56" fill="#FFF3FA"/>

  <g filter="url(#soft)">
    <circle cx="1110" cy="190" r="120" fill="#FF2FB3" fill-opacity="0.25"/>
    <circle cx="1260" cy="320" r="150" fill="#FF79D6" fill-opacity="0.22"/>
    <circle cx="980" cy="320" r="170" fill="#FFB3E8" fill-opacity="0.18"/>
  </g>

  <g filter="url(#shadow)">
    <rect x="560" y="110" width="760" height="560" rx="40" fill="url(#glass)" stroke="#FF2FB3" stroke-opacity="0.25" stroke-width="8"/>
    <path d="M620 210H1260" stroke="#FF2FB3" stroke-opacity="0.22" stroke-width="10" stroke-linecap="round"/>
    <path d="M620 310H1260" stroke="#FF2FB3" stroke-opacity="0.16" stroke-width="10" stroke-linecap="round"/>
    <path d="M620 410H1260" stroke="#FF2FB3" stroke-opacity="0.12" stroke-width="10" stroke-linecap="round"/>
    <path d="M620 510H1260" stroke="#FF2FB3" stroke-opacity="0.10" stroke-width="10" stroke-linecap="round"/>
  </g>

  <!-- Squeegee -->
  <g filter="url(#shadow)">
    <rect x="450" y="500" width="520" height="46" rx="23" fill="#1C0B16"/>
    <rect x="472" y="512" width="476" height="22" rx="11" fill="#FF2FB3"/>
    <rect x="710" y="260" width="34" height="290" rx="17" fill="#1C0B16"/>
    <rect x="714" y="272" width="26" height="266" rx="13" fill="#FFFFFF" fill-opacity="0.9"/>
  </g>

  <!-- Bucket + foam -->
  <g filter="url(#shadow)">
    <path d="M210 760C210 726 238 698 272 698H424C458 698 486 726 486 760V820C486 862 452 896 410 896H286C244 896 210 862 210 820V760Z" fill="#FFFFFF"/>
    <path d="M230 760C230 737 249 718 272 718H424C447 718 466 737 466 760V820C466 851 441 876 410 876H286C255 876 230 851 230 820V760Z" fill="#FF79D6" fill-opacity="0.22"/>
    <path d="M268 700C268 666 296 638 330 638H366C400 638 428 666 428 700V708H268V700Z" fill="#FF2FB3"/>
    <circle cx="258" cy="630" r="40" fill="#FFFFFF" fill-opacity="0.9"/>
    <circle cx="308" cy="610" r="54" fill="#FFFFFF" fill-opacity="0.82"/>
    <circle cx="380" cy="618" r="46" fill="#FFFFFF" fill-opacity="0.78"/>
    <circle cx="440" cy="644" r="36" fill="#FFFFFF" fill-opacity="0.76"/>
  </g>

  <!-- Sparkles -->
  <g opacity="0.9">
    <path d="M520 220l18 38 38 18-38 18-18 38-18-38-38-18 38-18 18-38z" fill="#FF2FB3"/>
    <path d="M1010 740l14 30 30 14-30 14-14 30-14-30-30-14 30-14 14-30z" fill="#FF2FB3" fill-opacity="0.85"/>
    <path d="M1220 720l10 22 22 10-22 10-10 22-10-22-22-10 22-10 10-22z" fill="#FF79D6"/>
  </g>

  <!-- Caption block (no text, for layout) -->
  <g filter="url(#shadow)">
    <rect x="90" y="140" width="420" height="260" rx="28" fill="#FFFFFF" fill-opacity="0.9" stroke="#FF2FB3" stroke-opacity="0.18" stroke-width="6"/>
    <rect x="120" y="180" width="300" height="20" rx="10" fill="#1C0B16" fill-opacity="0.85"/>
    <rect x="120" y="214" width="360" height="16" rx="8" fill="#1C0B16" fill-opacity="0.35"/>
    <rect x="120" y="244" width="330" height="16" rx="8" fill="#1C0B16" fill-opacity="0.32"/>
    <rect x="120" y="274" width="280" height="16" rx="8" fill="#1C0B16" fill-opacity="0.28"/>
    <rect x="120" y="318" width="190" height="44" rx="22" fill="#FF2FB3"/>
  </g>
</svg>

