<svg xmlns="http://www.w3.org/2000/svg" width="900" height="900" viewBox="0 0 900 900" fill="none">
  <defs>
    <filter id="sh" x="-40" y="-40" width="980" height="980" filterUnits="userSpaceOnUse">
      <feDropShadow dx="0" dy="18" stdDeviation="18" flood-color="#1B0A16" flood-opacity="0.16"/>
    </filter>
    <linearGradient id="p" x1="0" y1="0" x2="1" y2="1">
      <stop stop-color="#FF2FB3"/>
      <stop offset="1" stop-color="#FF79D6"/>
    </linearGradient>
  </defs>
  <rect width="900" height="900" rx="80" fill="#FFFFFF"/>
  <circle cx="690" cy="220" r="150" fill="#FF2FB3" fill-opacity="0.10"/>
  <circle cx="230" cy="700" r="180" fill="#FF79D6" fill-opacity="0.10"/>
  <g filter="url(#sh)">
    <path d="M220 420L450 240L680 420V700C680 740 648 772 608 772H292C252 772 220 740 220 700V420Z" fill="#FFF3FA" stroke="#FF2FB3" stroke-opacity="0.18" stroke-width="12" stroke-linejoin="round"/>
    <path d="M340 772V560C340 528 366 502 398 502H502C534 502 560 528 560 560V772" stroke="#FF79D6" stroke-opacity="0.35" stroke-width="12"/>
    <rect x="260" y="470" width="110" height="110" rx="26" fill="#FFFFFF" stroke="#FF2FB3" stroke-opacity="0.18" stroke-width="12"/>
    <path d="M450 330l14 30 30 14-30 14-14 30-14-30-30-14 30-14 14-30z" fill="url(#p)" opacity="0.92"/>
  </g>
</svg>

