<svg xmlns="http://www.w3.org/2000/svg" width="900" height="900" viewBox="0 0 900 900" fill="none">
  <defs>
    <filter id="sh" x="-40" y="-40" width="980" height="980" filterUnits="userSpaceOnUse">
      <feDropShadow dx="0" dy="18" stdDeviation="18" flood-color="#1B0A16" flood-opacity="0.16"/>
    </filter>
    <linearGradient id="p" x1="0" y1="0" x2="1" y2="1">
      <stop stop-color="#FF2FB3"/>
      <stop offset="1" stop-color="#FF79D6"/>
    </linearGradient>
  </defs>
  <rect width="900" height="900" rx="80" fill="#FFFFFF"/>
  <circle cx="700" cy="210" r="150" fill="#FF2FB3" fill-opacity="0.10"/>
  <circle cx="220" cy="710" r="180" fill="#FF79D6" fill-opacity="0.10"/>
  <g filter="url(#sh)">
    <rect x="240" y="210" width="420" height="560" rx="56" fill="#FFF3FA" stroke="#FF2FB3" stroke-opacity="0.18" stroke-width="12"/>
    <rect x="300" y="270" width="90" height="90" rx="24" fill="#FFFFFF" stroke="#FF2FB3" stroke-opacity="0.16" stroke-width="12"/>
    <rect x="420" y="270" width="90" height="90" rx="24" fill="#FFFFFF" stroke="#FF2FB3" stroke-opacity="0.16" stroke-width="12"/>
    <rect x="540" y="270" width="90" height="90" rx="24" fill="#FFFFFF" stroke="#FF2FB3" stroke-opacity="0.16" stroke-width="12"/>
    <rect x="300" y="400" width="90" height="90" rx="24" fill="#FFFFFF" stroke="#FF2FB3" stroke-opacity="0.12" stroke-width="12"/>
    <rect x="420" y="400" width="90" height="90" rx="24" fill="#FFFFFF" stroke="#FF2FB3" stroke-opacity="0.12" stroke-width="12"/>
    <rect x="540" y="400" width="90" height="90" rx="24" fill="#FFFFFF" stroke="#FF2FB3" stroke-opacity="0.12" stroke-width="12"/>
    <rect x="300" y="530" width="90" height="90" rx="24" fill="#FFFFFF" stroke="#FF2FB3" stroke-opacity="0.10" stroke-width="12"/>
    <rect x="420" y="530" width="90" height="90" rx="24" fill="#FFFFFF" stroke="#FF2FB3" stroke-opacity="0.10" stroke-width="12"/>
    <rect x="540" y="530" width="90" height="90" rx="24" fill="#FFFFFF" stroke="#FF2FB3" stroke-opacity="0.10" stroke-width="12"/>
    <rect x="330" y="670" width="240" height="64" rx="32" fill="url(#p)"/>
    <path d="M690 520l14 30 30 14-30 14-14 30-14-30-30-14 30-14 14-30z" fill="url(#p)" opacity="0.92"/>
  </g>
</svg>

