<svg xmlns="http://www.w3.org/2000/svg" width="1400" height="900" viewBox="0 0 1400 900" fill="none">
  <defs>
    <filter id="sh" x="-60" y="-60" width="1520" height="1020" filterUnits="userSpaceOnUse">
      <feDropShadow dx="0" dy="22" stdDeviation="22" flood-color="#1B0A16" flood-opacity="0.14"/>
    </filter>
    <linearGradient id="p" x1="0" y1="0" x2="1" y2="1">
      <stop stop-color="#FF2FB3"/>
      <stop offset="1" stop-color="#FF79D6"/>
    </linearGradient>
  </defs>

  <rect width="1400" height="900" rx="56" fill="#FFFFFF"/>
  <circle cx="1180" cy="190" r="180" fill="#FF2FB3" fill-opacity="0.10"/>
  <circle cx="240" cy="740" r="220" fill="#FF79D6" fill-opacity="0.10"/>

  <g filter="url(#sh)">
    <rect x="140" y="140" width="1120" height="620" rx="44" fill="#FFF3FA" stroke="#FF2FB3" stroke-opacity="0.16" stroke-width="10"/>

    <!-- window -->
    <rect x="820" y="210" width="360" height="400" rx="30" fill="#FFFFFF" stroke="#FF2FB3" stroke-opacity="0.20" stroke-width="10"/>
    <path d="M1000 210V610" stroke="#FF2FB3" stroke-opacity="0.18" stroke-width="10" stroke-linecap="round"/>
    <path d="M820 410H1180" stroke="#FF2FB3" stroke-opacity="0.14" stroke-width="10" stroke-linecap="round"/>
    <path d="M860 260H1140" stroke="#FF2FB3" stroke-opacity="0.10" stroke-width="12" stroke-linecap="round"/>
    <path d="M860 310H1120" stroke="#FF2FB3" stroke-opacity="0.08" stroke-width="12" stroke-linecap="round"/>

    <!-- sofa -->
    <rect x="260" y="470" width="460" height="170" rx="48" fill="#FFFFFF" stroke="#FF2FB3" stroke-opacity="0.18" stroke-width="10"/>
    <rect x="290" y="430" width="180" height="70" rx="28" fill="#FFFFFF" stroke="#FF79D6" stroke-opacity="0.30" stroke-width="10"/>
    <rect x="510" y="430" width="180" height="70" rx="28" fill="#FFFFFF" stroke="#FF79D6" stroke-opacity="0.30" stroke-width="10"/>
    <rect x="292" y="600" width="426" height="36" rx="18" fill="url(#p)" fill-opacity="0.90"/>

    <!-- plant -->
    <rect x="720" y="530" width="86" height="110" rx="24" fill="#FFFFFF" stroke="#FF2FB3" stroke-opacity="0.14" stroke-width="10"/>
    <path d="M748 520c-8-34 22-60 42-70 14 16 28 40 18 68-10 28-36 26-60 2z" fill="#FF79D6" fill-opacity="0.55"/>
    <path d="M776 520c6-34-16-58-34-70-14 16-26 40-14 68 12 28 30 28 48 2z" fill="#FF2FB3" fill-opacity="0.42"/>

    <!-- sparkles -->
    <path d="M610 250l14 30 30 14-30 14-14 30-14-30-30-14 30-14 14-30z" fill="url(#p)" opacity="0.9"/>
    <path d="M1140 660l10 22 22 10-22 10-10 22-10-22-22-10 22-10 10-22z" fill="#FF79D6" opacity="0.9"/>
  </g>
</svg>

