<svg xmlns="http://www.w3.org/2000/svg" width="1400" height="900" viewBox="0 0 1400 900" fill="none">
  <defs>
    <filter id="sh" x="-60" y="-60" width="1520" height="1020" filterUnits="userSpaceOnUse">
      <feDropShadow dx="0" dy="22" stdDeviation="22" flood-color="#1B0A16" flood-opacity="0.14"/>
    </filter>
    <linearGradient id="p" x1="0" y1="0" x2="1" y2="1">
      <stop stop-color="#FF2FB3"/>
      <stop offset="1" stop-color="#FF79D6"/>
    </linearGradient>
  </defs>

  <rect width="1400" height="900" rx="56" fill="#FFFFFF"/>
  <circle cx="1140" cy="220" r="190" fill="#FF2FB3" fill-opacity="0.10"/>
  <circle cx="260" cy="680" r="240" fill="#FF79D6" fill-opacity="0.10"/>

  <g filter="url(#sh)">
    <rect x="140" y="140" width="1120" height="620" rx="44" fill="#FFF3FA" stroke="#FF2FB3" stroke-opacity="0.16" stroke-width="10"/>

    <!-- cabinets -->
    <rect x="240" y="250" width="520" height="150" rx="34" fill="#FFFFFF" stroke="#FF2FB3" stroke-opacity="0.18" stroke-width="10"/>
    <rect x="240" y="420" width="520" height="220" rx="44" fill="#FFFFFF" stroke="#FF2FB3" stroke-opacity="0.18" stroke-width="10"/>
    <rect x="274" y="288" width="120" height="18" rx="9" fill="url(#p)" fill-opacity="0.35"/>
    <rect x="432" y="288" width="120" height="18" rx="9" fill="url(#p)" fill-opacity="0.35"/>
    <rect x="590" y="288" width="120" height="18" rx="9" fill="url(#p)" fill-opacity="0.35"/>

    <!-- sink -->
    <rect x="470" y="460" width="190" height="120" rx="28" fill="#FFF3FA" stroke="#FF79D6" stroke-opacity="0.35" stroke-width="10"/>
    <path d="M565 452c0-34 30-56 64-56" stroke="#FF2FB3" stroke-opacity="0.55" stroke-width="12" stroke-linecap="round"/>
    <path d="M622 396h70" stroke="#FF2FB3" stroke-opacity="0.55" stroke-width="12" stroke-linecap="round"/>

    <!-- stove -->
    <rect x="810" y="360" width="320" height="280" rx="44" fill="#FFFFFF" stroke="#FF2FB3" stroke-opacity="0.18" stroke-width="10"/>
    <rect x="850" y="400" width="240" height="90" rx="26" fill="#FFF3FA" stroke="#FF79D6" stroke-opacity="0.30" stroke-width="10"/>
    <circle cx="898" cy="540" r="22" fill="url(#p)"/>
    <circle cx="972" cy="540" r="22" fill="url(#p)" fill-opacity="0.85"/>
    <circle cx="1046" cy="540" r="22" fill="url(#p)" fill-opacity="0.7"/>

    <!-- sparkles -->
    <path d="M720 250l14 30 30 14-30 14-14 30-14-30-30-14 30-14 14-30z" fill="url(#p)" opacity="0.92"/>
    <path d="M1120 700l10 22 22 10-22 10-10 22-10-22-22-10 22-10 10-22z" fill="#FF79D6" opacity="0.9"/>
  </g>
</svg>

