<svg xmlns="http://www.w3.org/2000/svg" width="1600" height="700" viewBox="0 0 1600 700" fill="none">
  <defs>
    <filter id="sh" x="-60" y="-60" width="1720" height="820" filterUnits="userSpaceOnUse">
      <feDropShadow dx="0" dy="26" stdDeviation="24" flood-color="#1B0A16" flood-opacity="0.16"/>
    </filter>
    <linearGradient id="p" x1="0" y1="0" x2="1" y2="1">
      <stop stop-color="#FF2FB3"/>
      <stop offset="1" stop-color="#FF79D6"/>
    </linearGradient>
  </defs>

  <rect width="1600" height="700" rx="56" fill="#FFFFFF"/>
  <circle cx="1380" cy="160" r="200" fill="#FF2FB3" fill-opacity="0.10"/>
  <circle cx="260" cy="620" r="240" fill="#FF79D6" fill-opacity="0.10"/>

  <g filter="url(#sh)">
    <rect x="110" y="130" width="1380" height="440" rx="44" fill="#FFF3FA" stroke="#FF2FB3" stroke-opacity="0.16" stroke-width="10"/>

    <!-- dusty floor -->
    <path d="M170 520C420 430 640 600 900 520C1140 448 1240 420 1430 470V570H170V520Z" fill="#FFFFFF"/>
    <path d="M210 510c120-60 220 80 360 18 100-44 210 20 320-24 150-60 250-40 470 0" stroke="#1C0B16" stroke-opacity="0.10" stroke-width="18" stroke-linecap="round"/>
    <path d="M220 560c130-70 230 90 380 22 120-54 230 18 340-26 150-60 250-44 450 0" stroke="#1C0B16" stroke-opacity="0.08" stroke-width="16" stroke-linecap="round"/>

    <!-- vacuum -->
    <path d="M600 470l420-160" stroke="#1C0B16" stroke-opacity="0.88" stroke-width="18" stroke-linecap="round"/>
    <path d="M820 360c60-22 100-56 120-102" stroke="#1C0B16" stroke-opacity="0.88" stroke-width="18" stroke-linecap="round"/>
    <rect x="980" y="230" width="90" height="260" rx="40" fill="url(#p)"/>
    <rect x="992" y="260" width="66" height="22" rx="11" fill="#FFFFFF" fill-opacity="0.75"/>
    <rect x="540" y="470" width="210" height="62" rx="31" fill="#1C0B16" fill-opacity="0.92"/>
    <rect x="558" y="486" width="174" height="30" rx="15" fill="#FF2FB3"/>

    <!-- debris -->
    <circle cx="350" cy="520" r="10" fill="#1C0B16" fill-opacity="0.10"/>
    <circle cx="420" cy="546" r="14" fill="#1C0B16" fill-opacity="0.10"/>
    <circle cx="500" cy="522" r="12" fill="#1C0B16" fill-opacity="0.08"/>
    <rect x="1180" y="460" width="120" height="18" rx="9" fill="#FF2FB3" fill-opacity="0.18"/>

    <!-- price badge placeholder -->
    <rect x="1250" y="420" width="170" height="56" rx="28" fill="url(#p)"/>
  </g>
</svg>

